<svg width="344" height="57" viewBox="0 0 344 57" fill="none" xmlns="http://www.w3.org/2000/svg">
<path d="M247.42 0H200.189L205.256 8.086H219.618V29.1193H227.635V8.086H242.357L247.42 0Z" fill="#363B4E"/>
<path d="M88.5378 8.086C92.0747 8.086 94.951 10.9873 94.951 14.5548C94.951 18.1224 92.0747 21.0236 88.5378 21.0236H71.8634C68.3265 21.0236 65.4501 18.1224 65.4501 14.5548C65.4501 10.9873 68.3265 8.086 71.8634 8.086H88.5378ZM88.5378 0H71.8634C63.8949 0 57.4336 6.51732 57.4336 14.5548C57.4336 22.5923 63.8949 29.1096 71.8634 29.1096H88.5378C96.5063 29.1096 102.968 22.5923 102.968 14.5548C102.968 6.51732 96.5063 0 88.5378 0Z" fill="#363B4E"/>
<path d="M183.516 8.086C187.053 8.086 189.93 10.9873 189.93 14.5548C189.93 18.1224 187.053 21.0236 183.516 21.0236H166.842C163.305 21.0236 160.429 18.1224 160.429 14.5548C160.429 10.9873 163.305 8.086 166.842 8.086H183.516ZM183.516 0H166.842C158.873 0 152.412 6.51732 152.412 14.5548C152.412 22.5923 158.873 29.1096 166.842 29.1096H183.516C191.485 29.1096 197.946 22.5923 197.946 14.5548C197.946 6.51732 191.485 0 183.516 0Z" fill="#363B4E"/>
<path d="M280.768 8.086C284.305 8.086 287.182 10.9873 287.182 14.5548C287.182 18.1224 284.305 21.0236 280.768 21.0236H264.094C260.557 21.0236 257.681 18.1224 257.681 14.5548C257.681 10.9873 260.557 8.086 264.094 8.086H280.768ZM280.768 0H264.094C256.125 0 249.664 6.51732 249.664 14.5548C249.664 22.5923 256.125 29.1096 264.094 29.1096H280.768C288.737 29.1096 295.198 22.5923 295.198 14.5548C295.198 6.51732 288.737 0 280.768 0Z" fill="#363B4E"/>
<path d="M41.2724 0.0032344L26.9549 16.4016L12.6341 0L0 29.129H8.74766L14.9332 14.8685L21.6158 22.5179L26.9549 28.6374L32.2939 22.5179L38.9733 14.8685L45.1588 29.129H53.9065L41.2724 0.0032344Z" fill="#363B4E"/>
<path fill-rule="evenodd" clip-rule="evenodd" d="M104.572 29.1096L127.692 0.00646973L150.809 29.1096H140.538L127.692 12.9376L114.843 29.1096H104.572ZM320.883 16.1785L333.729 0.00646973H344L320.883 29.1096L297.764 0.00646973H308.034L320.883 16.1785Z" fill="#2A8FD9"/>
<path d="M26.036 48V40.538H32.966V48H32V41.42H27.002V48H26.036ZM36.4327 50.674V40.538H37.4127V41.854C38.1314 40.8647 39.1161 40.37 40.3667 40.37C41.5521 40.37 42.5041 40.7293 43.2228 41.448C43.9508 42.1667 44.3148 43.1093 44.3148 44.276C44.3148 45.4333 43.9508 46.376 43.2228 47.104C42.4947 47.8227 41.5427 48.182 40.3667 48.182C39.1347 48.182 38.1501 47.692 37.4127 46.712V50.674H36.4327ZM37.4127 44.276C37.4127 45.1813 37.6787 45.9047 38.2107 46.446C38.7427 46.9873 39.4567 47.258 40.3527 47.258C41.2487 47.258 41.9627 46.9873 42.4947 46.446C43.0361 45.8953 43.3068 45.172 43.3068 44.276C43.3068 43.3707 43.0361 42.6473 42.4947 42.106C41.9627 41.5553 41.2487 41.28 40.3527 41.28C39.4567 41.28 38.7427 41.5507 38.2107 42.092C37.6787 42.6333 37.4127 43.3613 37.4127 44.276ZM47.9644 47.174C47.2364 46.4367 46.8724 45.4707 46.8724 44.276C46.8724 43.0813 47.2364 42.12 47.9644 41.392C48.7017 40.6547 49.663 40.286 50.8484 40.286C52.043 40.286 53.0044 40.6547 53.7324 41.392C54.4697 42.12 54.8384 43.0813 54.8384 44.276C54.8384 45.4707 54.4697 46.4367 53.7324 47.174C53.0044 47.902 52.043 48.266 50.8484 48.266C49.663 48.266 48.7017 47.902 47.9644 47.174ZM48.6644 42.064C48.1324 42.6053 47.8664 43.3427 47.8664 44.276C47.8664 45.2093 48.1324 45.9513 48.6644 46.502C49.2057 47.0433 49.9337 47.314 50.8484 47.314C51.763 47.314 52.4864 47.0387 53.0184 46.488C53.5597 45.9373 53.8304 45.2 53.8304 44.276C53.8304 43.352 53.5597 42.6147 53.0184 42.064C52.4864 41.5133 51.763 41.238 50.8484 41.238C49.9337 41.238 49.2057 41.5133 48.6644 42.064ZM65.0632 45.62C64.8672 46.432 64.4379 47.076 63.7752 47.552C63.1219 48.028 62.3239 48.266 61.3812 48.266C60.1772 48.266 59.2112 47.902 58.4832 47.174C57.7645 46.4367 57.4052 45.4707 57.4052 44.276C57.4052 43.0813 57.7692 42.12 58.4972 41.392C59.2345 40.6547 60.1959 40.286 61.3812 40.286C62.5759 40.286 63.5325 40.65 64.2512 41.378C64.9792 42.0967 65.3432 43.058 65.3432 44.262V44.486H58.4832C58.4832 45.3633 58.7445 46.054 59.2672 46.558C59.7992 47.062 60.5039 47.314 61.3812 47.314C62.0159 47.314 62.5619 47.1693 63.0192 46.88C63.4765 46.5813 63.7939 46.1613 63.9712 45.62H65.0632ZM58.4832 43.674H64.2372C64.2372 42.946 63.9665 42.3533 63.4252 41.896C62.8839 41.4387 62.2025 41.21 61.3812 41.21C60.5505 41.21 59.8599 41.4387 59.3092 41.896C58.7585 42.3533 58.4832 42.946 58.4832 43.674ZM68.3593 48V40.538H69.3393V43.996L73.6513 40.538H75.1073L71.7053 43.268L75.6673 48H74.3653L70.9073 43.884L69.3393 45.158V48H68.3593ZM81.1381 48H80.1721V41.42H77.1481V40.538H84.1621V41.42H81.1381V48ZM86.7446 48V40.538H87.7106V46.852L92.4706 40.538H93.6746V48H92.7086V41.658L87.9346 48H86.7446ZM97.1413 50.674V40.538H98.1213V41.854C98.84 40.8647 99.8247 40.37 101.075 40.37C102.261 40.37 103.213 40.7293 103.931 41.448C104.659 42.1667 105.023 43.1093 105.023 44.276C105.023 45.4333 104.659 46.376 103.931 47.104C103.203 47.8227 102.251 48.182 101.075 48.182C99.8433 48.182 98.8587 47.692 98.1213 46.712V50.674H97.1413ZM98.1213 44.276C98.1213 45.1813 98.3873 45.9047 98.9193 46.446C99.4513 46.9873 100.165 47.258 101.061 47.258C101.957 47.258 102.671 46.9873 103.203 46.446C103.745 45.8953 104.015 45.172 104.015 44.276C104.015 43.3707 103.745 42.6473 103.203 42.106C102.671 41.5553 101.957 41.28 101.061 41.28C100.165 41.28 99.4513 41.5507 98.9193 42.092C98.3873 42.6333 98.1213 43.3613 98.1213 44.276ZM108.673 47.174C107.945 46.4367 107.581 45.4707 107.581 44.276C107.581 43.0813 107.945 42.12 108.673 41.392C109.41 40.6547 110.372 40.286 111.557 40.286C112.752 40.286 113.713 40.6547 114.441 41.392C115.178 42.12 115.547 43.0813 115.547 44.276C115.547 45.4707 115.178 46.4367 114.441 47.174C113.713 47.902 112.752 48.266 111.557 48.266C110.372 48.266 109.41 47.902 108.673 47.174ZM109.373 42.064C108.841 42.6053 108.575 43.3427 108.575 44.276C108.575 45.2093 108.841 45.9513 109.373 46.502C109.914 47.0433 110.642 47.314 111.557 47.314C112.472 47.314 113.195 47.0387 113.727 46.488C114.268 45.9373 114.539 45.2 114.539 44.276C114.539 43.352 114.268 42.6147 113.727 42.064C113.195 41.5133 112.472 41.238 111.557 41.238C110.642 41.238 109.914 41.5133 109.373 42.064ZM119.528 43.786H122.496C122.888 43.786 123.224 43.688 123.504 43.492C123.793 43.296 123.938 43.0253 123.938 42.68C123.938 42.204 123.812 41.8773 123.56 41.7C123.308 41.5133 122.86 41.42 122.216 41.42H119.528V43.786ZM118.562 40.538H122.538C123.331 40.538 123.928 40.7153 124.33 41.07C124.731 41.4153 124.932 41.9147 124.932 42.568C124.932 43.2773 124.6 43.7813 123.938 44.08C124.759 44.276 125.17 44.8593 125.17 45.83C125.17 47.2767 124.26 48 122.44 48H118.562V40.538ZM119.528 44.542V47.118H122.412C123.084 47.118 123.546 47.0247 123.798 46.838C124.05 46.642 124.176 46.3107 124.176 45.844C124.176 45.396 124.05 45.0693 123.798 44.864C123.555 44.6493 123.116 44.542 122.482 44.542H119.528ZM133.989 43.954C133.662 44.1313 132.803 44.3273 131.413 44.542C130.479 44.682 129.835 44.8407 129.481 45.018C129.126 45.186 128.949 45.5033 128.949 45.97C128.949 46.362 129.117 46.6793 129.453 46.922C129.798 47.1647 130.274 47.286 130.881 47.286C131.795 47.286 132.542 47.0713 133.121 46.642C133.699 46.2127 133.989 45.6527 133.989 44.962V43.954ZM135.795 47.048V47.888C135.496 47.9813 135.221 48.028 134.969 48.028C134.642 48.028 134.404 47.9393 134.255 47.762C134.115 47.5847 134.026 47.2813 133.989 46.852C133.569 47.3187 133.107 47.6547 132.603 47.86C132.099 48.0653 131.497 48.168 130.797 48.168C129.882 48.168 129.182 47.9767 128.697 47.594C128.211 47.202 127.969 46.6513 127.969 45.942C127.969 45.27 128.23 44.738 128.753 44.346C129.126 44.066 130.008 43.8327 131.399 43.646C131.576 43.618 131.786 43.59 132.029 43.562C132.271 43.534 132.453 43.5153 132.575 43.506C132.696 43.4873 132.841 43.464 133.009 43.436C133.177 43.408 133.298 43.38 133.373 43.352C133.457 43.3147 133.545 43.2727 133.639 43.226C133.732 43.17 133.797 43.1093 133.835 43.044C133.881 42.9787 133.919 42.8993 133.947 42.806C133.975 42.7127 133.989 42.6053 133.989 42.484C133.989 41.6533 133.298 41.238 131.917 41.238C130.209 41.238 129.322 41.8167 129.257 42.974H128.291C128.403 41.2287 129.569 40.356 131.791 40.356C133.144 40.356 134.059 40.65 134.535 41.238C134.721 41.4713 134.838 41.7233 134.885 41.994C134.941 42.2647 134.969 42.624 134.969 43.072V46.376C134.969 46.5253 134.969 46.6373 134.969 46.712C134.978 46.7773 134.997 46.8473 135.025 46.922C135.053 46.9967 135.095 47.048 135.151 47.076C135.207 47.104 135.281 47.118 135.375 47.118C135.515 47.118 135.655 47.0947 135.795 47.048ZM138.711 48V40.538H139.677V43.646H144.675V40.538H145.641V48H144.675V44.528H139.677V48H138.711ZM149.08 48V40.538H150.046V46.852L154.806 40.538H156.01V48H155.044V41.658L150.27 48H149.08ZM166.659 45.62C166.463 46.432 166.034 47.076 165.371 47.552C164.718 48.028 163.92 48.266 162.977 48.266C161.773 48.266 160.807 47.902 160.079 47.174C159.36 46.4367 159.001 45.4707 159.001 44.276C159.001 43.0813 159.365 42.12 160.093 41.392C160.83 40.6547 161.792 40.286 162.977 40.286C164.172 40.286 165.128 40.65 165.847 41.378C166.575 42.0967 166.939 43.058 166.939 44.262V44.486H160.079C160.079 45.3633 160.34 46.054 160.863 46.558C161.395 47.062 162.1 47.314 162.977 47.314C163.612 47.314 164.158 47.1693 164.615 46.88C165.072 46.5813 165.39 46.1613 165.567 45.62H166.659ZM160.079 43.674H165.833C165.833 42.946 165.562 42.3533 165.021 41.896C164.48 41.4387 163.798 41.21 162.977 41.21C162.146 41.21 161.456 41.4387 160.905 41.896C160.354 42.3533 160.079 42.946 160.079 43.674ZM175.88 48V40.538H176.846V46.852L181.606 40.538H182.81V48H181.844V41.658L177.07 48H175.88ZM198.389 45.284H199.383C199.281 46.1613 198.889 46.88 198.207 47.44C197.526 47.9907 196.7 48.266 195.729 48.266C194.544 48.266 193.583 47.902 192.845 47.174C192.117 46.4367 191.753 45.4707 191.753 44.276C191.753 43.0813 192.117 42.12 192.845 41.392C193.583 40.6547 194.544 40.286 195.729 40.286C196.672 40.286 197.47 40.538 198.123 41.042C198.786 41.546 199.183 42.204 199.313 43.016H198.305C197.932 41.812 197.064 41.21 195.701 41.21C194.824 41.21 194.11 41.49 193.559 42.05C193.018 42.61 192.747 43.352 192.747 44.276C192.747 45.2093 193.013 45.9513 193.545 46.502C194.087 47.0433 194.815 47.314 195.729 47.314C196.411 47.314 196.989 47.132 197.465 46.768C197.951 46.3947 198.259 45.9 198.389 45.284ZM205.309 48H204.343V41.42H201.319V40.538H208.333V41.42H205.309V48ZM210.943 50.674V40.538H211.923V41.854C212.642 40.8647 213.627 40.37 214.877 40.37C216.063 40.37 217.015 40.7293 217.733 41.448C218.461 42.1667 218.825 43.1093 218.825 44.276C218.825 45.4333 218.461 46.376 217.733 47.104C217.005 47.8227 216.053 48.182 214.877 48.182C213.645 48.182 212.661 47.692 211.923 46.712V50.674H210.943ZM211.923 44.276C211.923 45.1813 212.189 45.9047 212.721 46.446C213.253 46.9873 213.967 47.258 214.863 47.258C215.759 47.258 216.473 46.9873 217.005 46.446C217.547 45.8953 217.817 45.172 217.817 44.276C217.817 43.3707 217.547 42.6473 217.005 42.106C216.473 41.5553 215.759 41.28 214.863 41.28C213.967 41.28 213.253 41.5507 212.721 42.092C212.189 42.6333 211.923 43.3613 211.923 44.276ZM222.475 47.174C221.747 46.4367 221.383 45.4707 221.383 44.276C221.383 43.0813 221.747 42.12 222.475 41.392C223.212 40.6547 224.174 40.286 225.359 40.286C226.554 40.286 227.515 40.6547 228.243 41.392C228.98 42.12 229.349 43.0813 229.349 44.276C229.349 45.4707 228.98 46.4367 228.243 47.174C227.515 47.902 226.554 48.266 225.359 48.266C224.174 48.266 223.212 47.902 222.475 47.174ZM223.175 42.064C222.643 42.6053 222.377 43.3427 222.377 44.276C222.377 45.2093 222.643 45.9513 223.175 46.502C223.716 47.0433 224.444 47.314 225.359 47.314C226.274 47.314 226.997 47.0387 227.529 46.488C228.07 45.9373 228.341 45.2 228.341 44.276C228.341 43.352 228.07 42.6147 227.529 42.064C226.997 41.5133 226.274 41.238 225.359 41.238C224.444 41.238 223.716 41.5133 223.175 42.064ZM232.364 48V40.538H233.33V46.852L238.09 40.538H239.294V48H238.328V41.658L233.554 48H232.364ZM245.84 48H244.874V41.42H241.85V40.538H248.864V41.42H245.84V48ZM258.657 45.62C258.461 46.432 258.032 47.076 257.369 47.552C256.716 48.028 255.918 48.266 254.975 48.266C253.771 48.266 252.805 47.902 252.077 47.174C251.358 46.4367 250.999 45.4707 250.999 44.276C250.999 43.0813 251.363 42.12 252.091 41.392C252.828 40.6547 253.79 40.286 254.975 40.286C256.17 40.286 257.126 40.65 257.845 41.378C258.573 42.0967 258.937 43.058 258.937 44.262V44.486H252.077C252.077 45.3633 252.338 46.054 252.861 46.558C253.393 47.062 254.098 47.314 254.975 47.314C255.61 47.314 256.156 47.1693 256.613 46.88C257.07 46.5813 257.388 46.1613 257.565 45.62H258.657ZM252.077 43.674H257.831C257.831 42.946 257.56 42.3533 257.019 41.896C256.478 41.4387 255.796 41.21 254.975 41.21C254.144 41.21 253.454 41.4387 252.903 41.896C252.352 42.3533 252.077 42.946 252.077 43.674ZM263.605 41.42V43.184C263.605 43.6227 263.596 44.0007 263.577 44.318C263.568 44.6353 263.544 45.0133 263.507 45.452C263.47 45.8813 263.404 46.2453 263.311 46.544C263.227 46.8427 263.115 47.132 262.975 47.412C262.844 47.692 262.662 47.902 262.429 48.042C262.205 48.1913 261.944 48.266 261.645 48.266C261.365 48.266 261.127 48.2333 260.931 48.168V47.482C261.108 47.5193 261.304 47.538 261.519 47.538C261.92 47.538 262.205 47.1973 262.373 46.516C262.55 45.8347 262.639 44.8127 262.639 43.45V40.538H269.079V48H268.113V41.42H263.605ZM273.479 43.674H276.489C278.243 43.674 279.121 44.3927 279.121 45.83C279.121 47.2767 278.211 48 276.391 48H272.513V40.552H273.479V43.674ZM273.479 44.556V47.118H276.363C277.035 47.118 277.497 47.0247 277.749 46.838C278.001 46.642 278.127 46.3107 278.127 45.844C278.127 45.396 277.996 45.0693 277.735 44.864C277.483 44.6587 277.03 44.556 276.377 44.556H273.479ZM288.317 45.284H289.311C289.209 46.1613 288.817 46.88 288.135 47.44C287.454 47.9907 286.628 48.266 285.657 48.266C284.472 48.266 283.511 47.902 282.773 47.174C282.045 46.4367 281.681 45.4707 281.681 44.276C281.681 43.0813 282.045 42.12 282.773 41.392C283.511 40.6547 284.472 40.286 285.657 40.286C286.6 40.286 287.398 40.538 288.051 41.042C288.714 41.546 289.111 42.204 289.241 43.016H288.233C287.86 41.812 286.992 41.21 285.629 41.21C284.752 41.21 284.038 41.49 283.487 42.05C282.946 42.61 282.675 43.352 282.675 44.276C282.675 45.2093 282.941 45.9513 283.473 46.502C284.015 47.0433 284.743 47.314 285.657 47.314C286.339 47.314 286.917 47.132 287.393 46.768C287.879 46.3947 288.187 45.9 288.317 45.284ZM295.237 48H294.271V41.42H291.247V40.538H298.261V41.42H295.237V48ZM301.809 43.786H304.777C305.169 43.786 305.505 43.688 305.785 43.492C306.075 43.296 306.219 43.0253 306.219 42.68C306.219 42.204 306.093 41.8773 305.841 41.7C305.589 41.5133 305.141 41.42 304.497 41.42H301.809V43.786ZM300.843 40.538H304.819C305.613 40.538 306.21 40.7153 306.611 41.07C307.013 41.4153 307.213 41.9147 307.213 42.568C307.213 43.2773 306.882 43.7813 306.219 44.08C307.041 44.276 307.451 44.8593 307.451 45.83C307.451 47.2767 306.541 48 304.721 48H300.843V40.538ZM301.809 44.542V47.118H304.693C305.365 47.118 305.827 47.0247 306.079 46.838C306.331 46.642 306.457 46.3107 306.457 45.844C306.457 45.396 306.331 45.0693 306.079 44.864C305.837 44.6493 305.398 44.542 304.763 44.542H301.809ZM311.104 47.174C310.376 46.4367 310.012 45.4707 310.012 44.276C310.012 43.0813 310.376 42.12 311.104 41.392C311.842 40.6547 312.803 40.286 313.988 40.286C315.183 40.286 316.144 40.6547 316.872 41.392C317.61 42.12 317.978 43.0813 317.978 44.276C317.978 45.4707 317.61 46.4367 316.872 47.174C316.144 47.902 315.183 48.266 313.988 48.266C312.803 48.266 311.842 47.902 311.104 47.174ZM311.804 42.064C311.272 42.6053 311.006 43.3427 311.006 44.276C311.006 45.2093 311.272 45.9513 311.804 46.502C312.346 47.0433 313.074 47.314 313.988 47.314C314.903 47.314 315.626 47.0387 316.158 46.488C316.7 45.9373 316.97 45.2 316.97 44.276C316.97 43.352 316.7 42.6147 316.158 42.064C315.626 41.5133 314.903 41.238 313.988 41.238C313.074 41.238 312.346 41.5133 311.804 42.064Z" fill="#363B4E"/>
</svg>
