<svg width="929" height="71" viewBox="0 0 929 71" fill="none" xmlns="http://www.w3.org/2000/svg">
<path d="M673.823 50.8041H675.587C675.405 52.3614 674.709 53.637 673.5 54.631C672.29 55.6084 670.824 56.0972 669.101 56.0972C666.997 56.0972 665.291 55.451 663.982 54.1588C662.69 52.8501 662.044 51.1354 662.044 49.0149C662.044 46.8944 662.69 45.188 663.982 43.8958C665.291 42.587 666.997 41.9326 669.101 41.9326C670.774 41.9326 672.191 42.3799 673.35 43.2745C674.527 44.1691 675.231 45.3371 675.463 46.7784H673.674C673.011 44.6413 671.47 43.5727 669.051 43.5727C667.494 43.5727 666.227 44.0697 665.249 45.0637C664.288 46.0577 663.808 47.3748 663.808 49.0149C663.808 50.6716 664.28 51.9886 665.225 52.966C666.185 53.9269 667.478 54.4073 669.101 54.4073C670.31 54.4073 671.338 54.0843 672.183 53.4382C673.044 52.7755 673.591 51.8975 673.823 50.8041ZM683.62 55.625H681.905V43.9455H676.538V42.3799H688.988V43.9455H683.62V55.625ZM691.136 60.3714V42.3799H692.876V44.7158C694.151 42.9598 695.899 42.0817 698.119 42.0817C700.223 42.0817 701.913 42.7196 703.188 43.9952C704.481 45.2708 705.127 46.9441 705.127 49.0149C705.127 51.0692 704.481 52.7424 703.188 54.0346C701.896 55.3102 700.206 55.9481 698.119 55.9481C695.932 55.9481 694.184 55.0783 692.876 53.3388V60.3714H691.136ZM692.876 49.0149C692.876 50.6219 693.348 51.9058 694.292 52.8666C695.236 53.8275 696.504 54.3079 698.094 54.3079C699.684 54.3079 700.952 53.8275 701.896 52.8666C702.857 51.8892 703.337 50.6053 703.337 49.0149C703.337 47.4079 702.857 46.124 701.896 45.1631C700.952 44.1857 699.684 43.697 698.094 43.697C696.504 43.697 695.236 44.1774 694.292 45.1383C693.348 46.0992 692.876 47.3914 692.876 49.0149ZM709.12 54.1588C707.827 52.8501 707.181 51.1354 707.181 49.0149C707.181 46.8944 707.827 45.188 709.12 43.8958C710.428 42.587 712.135 41.9326 714.239 41.9326C716.359 41.9326 718.066 42.587 719.358 43.8958C720.667 45.188 721.321 46.8944 721.321 49.0149C721.321 51.1354 720.667 52.8501 719.358 54.1588C718.066 55.451 716.359 56.0972 714.239 56.0972C712.135 56.0972 710.428 55.451 709.12 54.1588ZM710.362 45.0886C709.418 46.0495 708.946 47.3582 708.946 49.0149C708.946 50.6716 709.418 51.9886 710.362 52.966C711.323 53.9269 712.615 54.4073 714.239 54.4073C715.862 54.4073 717.146 53.9186 718.091 52.9412C719.051 51.9638 719.532 50.655 719.532 49.0149C719.532 47.3748 719.051 46.066 718.091 45.0886C717.146 44.1112 715.862 43.6224 714.239 43.6224C712.615 43.6224 711.323 44.1112 710.362 45.0886ZM724.187 55.625V42.3799H725.902V53.5873L734.351 42.3799H736.488V55.625H734.773V44.3679L726.3 55.625H724.187ZM745.624 55.625H743.909V43.9455H738.541V42.3799H750.991V43.9455H745.624V55.625ZM765.888 51.4005C765.54 52.8418 764.778 53.9849 763.602 54.8298C762.442 55.6747 761.025 56.0972 759.352 56.0972C757.215 56.0972 755.5 55.451 754.208 54.1588C752.933 52.8501 752.295 51.1354 752.295 49.0149C752.295 46.8944 752.941 45.188 754.233 43.8958C755.542 42.587 757.248 41.9326 759.352 41.9326C761.473 41.9326 763.171 42.5787 764.446 43.8709C765.739 45.1466 766.385 46.8529 766.385 48.99V49.3876H754.208C754.208 50.9449 754.672 52.1708 755.6 53.0654C756.544 53.96 757.795 54.4073 759.352 54.4073C760.479 54.4073 761.448 54.1506 762.26 53.637C763.071 53.1069 763.635 52.3614 763.949 51.4005H765.888ZM754.208 47.9463H764.422C764.422 46.6541 763.941 45.6022 762.98 44.7904C762.019 43.9786 760.81 43.5727 759.352 43.5727C757.878 43.5727 756.652 43.9786 755.674 44.7904C754.697 45.6022 754.208 46.6541 754.208 47.9463ZM772.186 43.9455V47.0766C772.186 47.8552 772.169 48.5262 772.136 49.0894C772.119 49.6527 772.078 50.3237 772.012 51.1023C771.945 51.8644 771.83 52.5105 771.664 53.0406C771.515 53.5707 771.316 54.0843 771.067 54.5813C770.836 55.0783 770.512 55.451 770.098 55.6996C769.701 55.9646 769.237 56.0972 768.707 56.0972C768.21 56.0972 767.787 56.0392 767.439 55.9232V54.7055C767.754 54.7718 768.102 54.8049 768.483 54.8049C769.195 54.8049 769.701 54.2003 769.999 52.9909C770.314 51.7815 770.471 49.9675 770.471 47.5487V42.3799H781.902V55.625H780.187V43.9455H772.186ZM787.226 47.9463H792.569C795.683 47.9463 797.241 49.222 797.241 51.7732C797.241 54.3411 795.625 55.625 792.395 55.625H785.512V42.4048H787.226V47.9463ZM787.226 49.5119V54.0594H792.345C793.538 54.0594 794.358 53.8938 794.805 53.5624C795.253 53.2145 795.476 52.6264 795.476 51.7981C795.476 51.0029 795.244 50.4231 794.781 50.0586C794.333 49.6941 793.53 49.5119 792.37 49.5119H787.226ZM811.08 50.8041H812.844C812.662 52.3614 811.966 53.637 810.757 54.631C809.548 55.6084 808.081 56.0972 806.359 56.0972C804.255 56.0972 802.548 55.451 801.239 54.1588C799.947 52.8501 799.301 51.1354 799.301 49.0149C799.301 46.8944 799.947 45.188 801.239 43.8958C802.548 42.587 804.255 41.9326 806.359 41.9326C808.032 41.9326 809.448 42.3799 810.608 43.2745C811.784 44.1691 812.488 45.3371 812.72 46.7784H810.931C810.268 44.6413 808.728 43.5727 806.309 43.5727C804.752 43.5727 803.484 44.0697 802.507 45.0637C801.546 46.0577 801.065 47.3748 801.065 49.0149C801.065 50.6716 801.538 51.9886 802.482 52.966C803.443 53.9269 804.735 54.4073 806.359 54.4073C807.568 54.4073 808.595 54.0843 809.44 53.4382C810.301 52.7755 810.848 51.8975 811.08 50.8041ZM820.877 55.625H819.163V43.9455H813.795V42.3799H826.245V43.9455H820.877V55.625ZM830.058 48.1451H835.327C836.022 48.1451 836.619 47.9712 837.116 47.6233C837.629 47.2754 837.886 46.795 837.886 46.182C837.886 45.3371 837.663 44.7573 837.215 44.4425C836.768 44.1112 835.973 43.9455 834.83 43.9455H830.058V48.1451ZM828.344 42.3799H835.401C836.809 42.3799 837.87 42.6947 838.582 43.3242C839.294 43.9372 839.651 44.8235 839.651 45.9832C839.651 47.2423 839.062 48.1369 837.886 48.667C839.344 49.0149 840.073 50.0503 840.073 51.7732C840.073 54.3411 838.458 55.625 835.227 55.625H828.344V42.3799ZM830.058 49.487V54.0594H835.178C836.37 54.0594 837.19 53.8938 837.638 53.5624C838.085 53.2145 838.309 52.6264 838.309 51.7981C838.309 51.0029 838.085 50.4231 837.638 50.0586C837.207 49.6776 836.428 49.487 835.302 49.487H830.058ZM844.072 54.1588C842.78 52.8501 842.133 51.1354 842.133 49.0149C842.133 46.8944 842.78 45.188 844.072 43.8958C845.38 42.587 847.087 41.9326 849.191 41.9326C851.311 41.9326 853.018 42.587 854.31 43.8958C855.619 45.188 856.273 46.8944 856.273 49.0149C856.273 51.1354 855.619 52.8501 854.31 54.1588C853.018 55.451 851.311 56.0972 849.191 56.0972C847.087 56.0972 845.38 55.451 844.072 54.1588ZM845.314 45.0886C844.37 46.0495 843.898 47.3582 843.898 49.0149C843.898 50.6716 844.37 51.9886 845.314 52.966C846.275 53.9269 847.567 54.4073 849.191 54.4073C850.814 54.4073 852.098 53.9186 853.043 52.9412C854.003 51.9638 854.484 50.655 854.484 49.0149C854.484 47.3748 854.003 46.066 853.043 45.0886C852.098 44.1112 850.814 43.6224 849.191 43.6224C847.567 43.6224 846.275 44.1112 845.314 45.0886Z" fill="white"/>
<path d="M686.265 29V15.7549H698.565V29H696.851V17.3205H687.979V29H686.265ZM702.234 33.7464V15.7549H703.973V18.0908C705.249 16.3348 706.997 15.4567 709.217 15.4567C711.321 15.4567 713.011 16.0946 714.286 17.3702C715.578 18.6458 716.224 20.3191 716.224 22.3899C716.224 24.4442 715.578 26.1174 714.286 27.4096C712.994 28.6852 711.304 29.3231 709.217 29.3231C707.03 29.3231 705.282 28.4533 703.973 26.7138V33.7464H702.234ZM703.973 22.3899C703.973 23.9969 704.446 25.2808 705.39 26.2416C706.334 27.2025 707.602 27.6829 709.192 27.6829C710.782 27.6829 712.05 27.2025 712.994 26.2416C713.955 25.2642 714.435 23.9803 714.435 22.3899C714.435 20.7829 713.955 19.499 712.994 18.5381C712.05 17.5607 710.782 17.072 709.192 17.072C707.602 17.072 706.334 17.5524 705.39 18.5133C704.446 19.4742 703.973 20.7664 703.973 22.3899ZM720.218 27.5338C718.925 26.2251 718.279 24.5104 718.279 22.3899C718.279 20.2694 718.925 18.563 720.218 17.2708C721.526 15.962 723.233 15.3076 725.337 15.3076C727.457 15.3076 729.164 15.962 730.456 17.2708C731.765 18.563 732.419 20.2694 732.419 22.3899C732.419 24.5104 731.765 26.2251 730.456 27.5338C729.164 28.826 727.457 29.4722 725.337 29.4722C723.233 29.4722 721.526 28.826 720.218 27.5338ZM721.46 18.4636C720.516 19.4245 720.044 20.7332 720.044 22.3899C720.044 24.0466 720.516 25.3636 721.46 26.341C722.421 27.3019 723.713 27.7823 725.337 27.7823C726.96 27.7823 728.244 27.2936 729.188 26.3162C730.149 25.3388 730.63 24.03 730.63 22.3899C730.63 20.7498 730.149 19.441 729.188 18.4636C728.244 17.4862 726.96 16.9974 725.337 16.9974C723.713 16.9974 722.421 17.4862 721.46 18.4636ZM748.083 24.7755C747.735 26.2168 746.973 27.3599 745.797 28.2048C744.637 29.0497 743.221 29.4722 741.547 29.4722C739.41 29.4722 737.696 28.826 736.403 27.5338C735.128 26.2251 734.49 24.5104 734.49 22.3899C734.49 20.2694 735.136 18.563 736.428 17.2708C737.737 15.962 739.443 15.3076 741.547 15.3076C743.668 15.3076 745.366 15.9537 746.642 17.2459C747.934 18.5216 748.58 20.2279 748.58 22.365V22.7626H736.403C736.403 24.3199 736.867 25.5458 737.795 26.4404C738.739 27.335 739.99 27.7823 741.547 27.7823C742.674 27.7823 743.643 27.5256 744.455 27.012C745.267 26.4819 745.83 25.7364 746.145 24.7755H748.083ZM736.403 21.3213H746.617C746.617 20.0291 746.136 18.9772 745.175 18.1654C744.215 17.3536 743.005 16.9477 741.547 16.9477C740.073 16.9477 738.847 17.3536 737.87 18.1654C736.892 18.9772 736.403 20.0291 736.403 21.3213ZM751.449 29V15.7549H753.188V21.8929L760.842 15.7549H763.426L757.388 20.6007L764.42 29H762.109L755.971 21.6941L753.188 23.9554V29H751.449ZM771.646 29H769.931V17.3205H764.564V15.7549H777.014V17.3205H771.646V29ZM779.112 29V15.7549H780.827V26.9623L789.276 15.7549H791.413V29H789.699V17.7429L781.225 29H779.112ZM795.082 33.7464V15.7549H796.821V18.0908C798.097 16.3348 799.845 15.4567 802.065 15.4567C804.168 15.4567 805.858 16.0946 807.134 17.3702C808.426 18.6458 809.072 20.3191 809.072 22.3899C809.072 24.4442 808.426 26.1174 807.134 27.4096C805.842 28.6852 804.152 29.3231 802.065 29.3231C799.878 29.3231 798.13 28.4533 796.821 26.7138V33.7464H795.082ZM796.821 22.3899C796.821 23.9969 797.293 25.2808 798.238 26.2416C799.182 27.2025 800.449 27.6829 802.04 27.6829C803.63 27.6829 804.897 27.2025 805.842 26.2416C806.803 25.2642 807.283 23.9803 807.283 22.3899C807.283 20.7829 806.803 19.499 805.842 18.5381C804.897 17.5607 803.63 17.072 802.04 17.072C800.449 17.072 799.182 17.5524 798.238 18.5133C797.293 19.4742 796.821 20.7664 796.821 22.3899ZM813.065 27.5338C811.773 26.2251 811.127 24.5104 811.127 22.3899C811.127 20.2694 811.773 18.563 813.065 17.2708C814.374 15.962 816.08 15.3076 818.184 15.3076C820.305 15.3076 822.011 15.962 823.304 17.2708C824.612 18.563 825.267 20.2694 825.267 22.3899C825.267 24.5104 824.612 26.2251 823.304 27.5338C822.011 28.826 820.305 29.4722 818.184 29.4722C816.08 29.4722 814.374 28.826 813.065 27.5338ZM814.308 18.4636C813.364 19.4245 812.891 20.7332 812.891 22.3899C812.891 24.0466 813.364 25.3636 814.308 26.341C815.269 27.3019 816.561 27.7823 818.184 27.7823C819.808 27.7823 821.092 27.2936 822.036 26.3162C822.997 25.3388 823.477 24.03 823.477 22.3899C823.477 20.7498 822.997 19.441 822.036 18.4636C821.092 17.4862 819.808 16.9974 818.184 16.9974C816.561 16.9974 815.269 17.4862 814.308 18.4636ZM829.848 21.5201H835.116C835.812 21.5201 836.408 21.3462 836.905 20.9983C837.419 20.6504 837.675 20.17 837.675 19.557C837.675 18.7121 837.452 18.1323 837.004 17.8175C836.557 17.4862 835.762 17.3205 834.619 17.3205H829.848V21.5201ZM828.133 15.7549H835.19C836.599 15.7549 837.659 16.0697 838.371 16.6992C839.084 17.3122 839.44 18.1985 839.44 19.3582C839.44 20.6173 838.852 21.5119 837.675 22.042C839.133 22.3899 839.862 23.4253 839.862 25.1482C839.862 27.7161 838.247 29 835.016 29H828.133V15.7549ZM829.848 22.862V27.4344H834.967C836.16 27.4344 836.98 27.2688 837.427 26.9374C837.874 26.5895 838.098 26.0014 838.098 25.1731C838.098 24.3779 837.874 23.7981 837.427 23.4336C836.996 23.0526 836.217 22.862 835.091 22.862H829.848ZM853.031 21.8183C852.451 22.1331 850.927 22.481 848.458 22.862C846.801 23.1105 845.658 23.3922 845.029 23.7069C844.399 24.0051 844.085 24.5684 844.085 25.3967C844.085 26.0925 844.383 26.6558 844.979 27.0865C845.592 27.5173 846.437 27.7326 847.514 27.7326C849.137 27.7326 850.463 27.3516 851.49 26.5895C852.517 25.8275 853.031 24.8335 853.031 23.6075V21.8183ZM856.236 27.3102V28.8012C855.706 28.9669 855.217 29.0497 854.77 29.0497C854.19 29.0497 853.768 28.8923 853.503 28.5775C853.254 28.2628 853.097 27.7244 853.031 26.9623C852.285 27.7906 851.465 28.387 850.57 28.7515C849.676 29.116 848.607 29.2982 847.365 29.2982C845.741 29.2982 844.499 28.9586 843.637 28.2793C842.776 27.5835 842.345 26.6061 842.345 25.347C842.345 24.1542 842.809 23.2099 843.737 22.5141C844.399 22.0171 845.965 21.603 848.433 21.2716C848.748 21.2219 849.121 21.1722 849.552 21.1225C849.982 21.0728 850.305 21.0397 850.521 21.0231C850.736 20.99 850.993 20.9486 851.291 20.8989C851.589 20.8492 851.805 20.7995 851.937 20.7498C852.086 20.6835 852.244 20.609 852.409 20.5261C852.575 20.4267 852.691 20.3191 852.757 20.2031C852.84 20.0871 852.906 19.9463 852.956 19.7806C853.006 19.615 853.031 19.4245 853.031 19.2091C853.031 17.7347 851.805 16.9974 849.353 16.9974C846.321 16.9974 844.747 18.0246 844.631 20.0788H842.917C843.115 16.9809 845.186 15.4319 849.129 15.4319C851.531 15.4319 853.155 15.9537 854 16.9974C854.331 17.4116 854.538 17.8589 854.621 18.3393C854.72 18.8198 854.77 19.4576 854.77 20.2528V26.1174C854.77 26.3825 854.77 26.5813 854.77 26.7138C854.787 26.8298 854.82 26.954 854.869 27.0865C854.919 27.2191 854.994 27.3102 855.093 27.3599C855.192 27.4096 855.325 27.4344 855.491 27.4344C855.739 27.4344 855.988 27.393 856.236 27.3102ZM858.928 29V15.7549H860.643V21.2716H869.515V15.7549H871.229V29H869.515V22.8372H860.643V29H858.928ZM874.848 29V15.7549H876.563V26.9623L885.012 15.7549H887.149V29H885.434V17.7429L876.96 29H874.848ZM903.565 24.7755C903.217 26.2168 902.455 27.3599 901.279 28.2048C900.119 29.0497 898.703 29.4722 897.03 29.4722C894.893 29.4722 893.178 28.826 891.886 27.5338C890.61 26.2251 889.972 24.5104 889.972 22.3899C889.972 20.2694 890.618 18.563 891.911 17.2708C893.219 15.962 894.926 15.3076 897.03 15.3076C899.15 15.3076 900.848 15.9537 902.124 17.2459C903.416 18.5216 904.062 20.2279 904.062 22.365V22.7626H891.886C891.886 24.3199 892.35 25.5458 893.277 26.4404C894.222 27.335 895.472 27.7823 897.03 27.7823C898.156 27.7823 899.125 27.5256 899.937 27.012C900.749 26.4819 901.312 25.7364 901.627 24.7755H903.565ZM891.886 21.3213H902.099C902.099 20.0291 901.619 18.9772 900.658 18.1654C899.697 17.3536 898.488 16.9477 897.03 16.9477C895.555 16.9477 894.329 17.3536 893.352 18.1654C892.375 18.9772 891.886 20.0291 891.886 21.3213Z" fill="white"/>
<path d="M439.17 7.09963H355.336L364.329 21.4523H389.823V58.7864H404.052V21.4523H430.183L439.17 7.09963Z" fill="white"/>
<path d="M157.155 21.4523C163.433 21.4523 168.538 26.602 168.538 32.9344C168.538 39.2668 163.433 44.4165 157.155 44.4165H127.558C121.28 44.4165 116.174 39.2668 116.174 32.9344C116.174 26.602 121.28 21.4523 127.558 21.4523H157.155ZM157.155 7.09963H127.558C113.413 7.09963 101.945 18.6679 101.945 32.9344C101.945 47.201 113.413 58.7692 127.558 58.7692H157.155C171.299 58.7692 182.767 47.201 182.767 32.9344C182.767 18.6679 171.299 7.09963 157.155 7.09963Z" fill="white"/>
<path d="M325.741 21.4523C332.02 21.4523 337.125 26.602 337.125 32.9344C337.125 39.2668 332.02 44.4165 325.741 44.4165H296.144C289.866 44.4165 284.761 39.2668 284.761 32.9344C284.761 26.602 289.866 21.4523 296.144 21.4523H325.741ZM325.741 7.09963H296.144C282 7.09963 270.531 18.6679 270.531 32.9344C270.531 47.201 282 58.7692 296.144 58.7692H325.741C339.885 58.7692 351.354 47.201 351.354 32.9344C351.354 18.6679 339.885 7.09963 325.741 7.09963Z" fill="white"/>
<path d="M498.364 21.4523C504.642 21.4523 509.747 26.602 509.747 32.9344C509.747 39.2668 504.642 44.4165 498.364 44.4165H468.767C462.489 44.4165 457.383 39.2668 457.383 32.9344C457.383 26.602 462.489 21.4523 468.767 21.4523H498.364ZM498.364 7.09963H468.767C454.623 7.09963 443.154 18.6679 443.154 32.9344C443.154 47.201 454.623 58.7692 468.767 58.7692H498.364C512.508 58.7692 523.977 47.201 523.977 32.9344C523.977 18.6679 512.508 7.09963 498.364 7.09963Z" fill="white"/>
<path d="M73.2585 7.10535L47.8449 36.2125L22.4255 7.09961L0 58.8036H15.5271L26.5065 33.4913L47.8449 57.931L69.1776 33.4913L80.1569 58.8036H95.684L73.2585 7.10535Z" fill="white"/>
<path d="M226.654 7.11133L185.616 58.7694H203.847L226.654 30.0641L249.455 58.7694H267.686L226.654 7.11133Z" fill="#2A8FD9"/>
<path d="M592.37 7.11133L569.569 35.8166L546.762 7.11133H528.531L569.569 58.7694L610.6 7.11133H592.37Z" fill="#2A8FD9"/>
<path fill-rule="evenodd" clip-rule="evenodd" d="M654.5 7.09961L613.749 58.5746H611L651.751 7.09961H654.5Z" fill="#2A8FD9"/>
</svg>
